# xmcd CD database file
#
# Track frame offsets:
#	150
#	15823
#	29119
#	44129
#	61537
#	77381
#	91181
#	104296
#	117837
#	133901
#	149613
#
# Disc length: 2177 seconds
#
# Revision: 2
# Processed by: cddbd v1.5.2PL0 Copyright (c) Steve Scherf et al.
# Submitted via: CDex 1.51
#
DISCID=8c087f0b
DTITLE=Chris Young - Chris Young
DYEAR=2006
DGENRE=Country
TTITLE0=Beer Or Gasoline
TTITLE1=You're Gonna Love Me
TTITLE2=Drinkin' Me Lonely
TTITLE3=White Lightning Hit The Family Tree
TTITLE4=Lay It On Me
TTITLE5=Burn
TTITLE6=Small Town Big Time
TTITLE7=Flowers
TTITLE8=Center Of My World
TTITLE9=I'm Headed Your Way, Jose
TTITLE10=Who's Gonna Take Me Home
EXTD=YEAR: 2006
EXTT0=
EXTT1=
EXTT2=
EXTT3=
EXTT4=
EXTT5=
EXTT6=
EXTT7=
EXTT8=
EXTT9=
EXTT10=
PLAYORDER=
